# xmcd
#
# Track frame offsets: 
#        150
#        15227
#        29157
#        42572
#        54575
#        72205
#        85140
#        103540
#        118150
#        132920
#
# Disc length: 1921 seconds
#
# Revision: 4
# Processed by: cddbd v1.5.2PL0 Copyright (c) Steve Scherf et al.
# Submitted via: ExactAudioCopy v1.1
#
DISCID=86077f0a
DTITLE=Asleep At The Wheel - Western Standard Time
DYEAR=1988
DGENRE=Country
TTITLE0=Chattanooga Choo Choo
TTITLE1=Don't Let Go
TTITLE2=Hot Rod Lincoln
TTITLE3=That's What I Like 'Bout The South
TTITLE4=That Lucky Old Sun (Just Rolls Around Heaven All Day)
TTITLE5=Walk On By
TTITLE6=San Antonio Rose
TTITLE7=Roly Poly
TTITLE8=Sugarfoot Rag
TTITLE9=Walking The Floor Over You
EXTD=YEAR: 1988
EXTT0=
EXTT1=
EXTT2=
EXTT3=
EXTT4=
EXTT5=
EXTT6=
EXTT7=
EXTT8=
EXTT9=
PLAYORDER=
